<?xml version="1.0" encoding="UTF-8"?><svg xmlns="http://www.w3.org/2000/svg" xmlns:xlink="http://www.w3.org/1999/xlink" height="502.0" preserveAspectRatio="xMidYMid meet" version="1.0" viewBox="0.0 0.0 860.2 502.0" width="860.2" zoomAndPan="magnify"><g id="change1_1"><path d="M814.2,502H46v-1c0-24.8-20.2-45-45-45H0V46h1c24.8,0,45-20.2,45-45V0h768.2v1c0,24.8,20.2,45,45,45h1v410 h-1c-24.8,0-45,20.2-45,45V502z M48,500h764.2c0.5-25.1,20.9-45.4,46-46V48c-25.1-0.5-45.4-20.9-46-46H48C47.4,27.1,27.1,47.4,2,48 V454C27.1,454.6,47.4,474.9,48,500z" fill="#DADAD9"/></g></svg>